<svg width="96" height="96" viewBox="0 0 96 96" fill="none" xmlns="http://www.w3.org/2000/svg">
<g clip-path="url(#clip0_27_114)">
<path d="M79.12 70.04C69.24 70.04 52.84 64.72 44.4 48.32C35.08 30.28 42.4 14.4 46.52 8.04004C25.08 8.80004 7.92001 26.36 7.92001 48C7.92001 48.56 8.00001 49.12 8.00001 49.68C10.44 48.64 13.12 48 15.92 48C15.92 35.64 22.84 24.92 33.12 19.6C31.12 28.36 30.96 39.76 37.28 52C43.56 64.16 54 71.8 64.48 75.44C59.56 78.4 53.88 80.04 47.96 80.04C45.96 80.04 43.96 79.84 42.04 79.48C40.56 82.28 38.28 84.56 35.48 86.04C39.4 87.32 43.6 88.04 47.92 88.04C61.92 88.04 74.24 80.84 81.4 69.96C80.72 70 79.92 70.04 79.12 70.04Z" fill="black"/>
<path d="M28 64H27.28C25.6 59.36 21.2 56 16 56C9.36 56 4 61.36 4 68C4 74.64 9.36 80 16 80C18.48 80 25.96 80 28 80C32.4 80 36 76.4 36 72C36 67.6 32.4 64 28 64Z" fill="black"/>
</g>
<defs>
<clipPath id="clip0_27_114">
<rect width="96" height="96" fill="white"/>
</clipPath>
</defs>
</svg>
