<svg width="96" height="96" viewBox="0 0 96 96" fill="none" xmlns="http://www.w3.org/2000/svg">
<g clip-path="url(#clip0_27_121)">
<path d="M27.04 19.36L19.84 12.2L14.2 17.84L21.36 25L27.04 19.36ZM4 42H16V50H4V42ZM44 2.19995H52V14H44V2.19995ZM76.16 12.18L81.792 17.808L74.632 24.968L69.004 19.336L76.16 12.18ZM68.96 72.64L76.12 79.84L81.76 74.2L74.56 67.04L68.96 72.64ZM80 42H92V50H80V42ZM48 22C34.76 22 24 32.76 24 46C24 59.24 34.76 70 48 70C61.24 70 72 59.24 72 46C72 32.76 61.24 22 48 22ZM48 62C39.16 62 32 54.84 32 46C32 37.16 39.16 30 48 30C56.84 30 64 37.16 64 46C64 54.84 56.84 62 48 62ZM44 78H52V89.8H44V78ZM14.2 74.16L19.84 79.8L27 72.6L21.36 66.96L14.2 74.16Z" fill="white"/>
</g>
<defs>
<clipPath id="clip0_27_121">
<rect width="96" height="96" fill="white"/>
</clipPath>
</defs>
</svg>
