<svg width="2123" height="291" viewBox="0 0 2123 291" fill="none" xmlns="http://www.w3.org/2000/svg">
<g clip-path="url(#clip0_664_3134)">
<path d="M1287.61 198H1219.66V93.9961H1241.02V179.349H1287.61V198ZM1334.48 198V93.9961H1401.6V112.647H1355.84V136.291H1398.76V155.012H1355.84V179.349H1402.29V198H1334.48ZM1528.48 120.136C1525.43 117.085 1521.78 114.728 1517.53 113.063C1513.32 111.399 1508.82 110.567 1504.01 110.567C1499.2 110.567 1494.81 111.399 1490.83 113.063C1486.86 114.728 1483.44 117.108 1480.57 120.205C1477.71 123.302 1475.49 127 1473.92 131.299C1472.34 135.551 1471.56 140.312 1471.56 145.582C1471.56 150.852 1472.34 155.682 1473.92 160.073C1475.53 164.465 1477.8 168.255 1480.71 171.444C1483.67 174.588 1487.16 177.037 1491.18 178.794C1495.25 180.55 1499.73 181.429 1504.63 181.429C1508.7 181.429 1512.42 180.805 1515.79 179.557C1519.22 178.309 1522.22 176.529 1524.81 174.218C1527.4 171.907 1529.52 169.11 1531.19 165.828C1532.9 162.546 1534.08 158.871 1534.72 154.804H1504.56V138.51H1553.51L1554.14 146.553C1554.14 154.457 1552.91 161.691 1550.46 168.255C1548.06 174.819 1544.64 180.481 1540.2 185.242C1535.76 189.957 1530.47 193.609 1524.32 196.197C1518.22 198.786 1511.45 200.08 1504.01 200.08C1496.29 200.08 1489.12 198.716 1482.51 195.989C1475.95 193.262 1470.19 189.449 1465.25 184.549C1460.35 179.649 1456.54 173.917 1453.81 167.354C1451.08 160.743 1449.72 153.602 1449.72 145.929C1449.72 138.256 1451.06 131.16 1453.74 124.643C1456.47 118.079 1460.26 112.347 1465.11 107.447C1470.01 102.548 1475.72 98.734 1482.24 96.0068C1488.75 93.2796 1495.85 91.916 1503.52 91.916C1510.69 91.916 1517.62 93.1641 1524.32 95.6602C1531.03 98.1562 1537.01 101.715 1542.28 106.338L1528.48 120.136ZM1602.95 198V93.9961H1670.07V112.647H1624.31V136.291H1667.22V155.012H1624.31V179.349H1670.76V198H1602.95ZM1816.99 198H1792.45L1743.84 127V198H1722.49V93.9961H1747.03L1795.63 165.135V93.9961H1816.99V198ZM1869.48 198V93.9961H1903.52C1916.09 93.9961 1926.98 96.1224 1936.18 100.375C1945.38 104.628 1952.5 110.637 1957.53 118.402C1962.57 126.168 1965.09 135.367 1965.09 145.998C1965.09 156.583 1962.57 165.782 1957.53 173.594C1952.5 181.359 1945.38 187.368 1936.18 191.621C1926.98 195.874 1916.09 198 1903.52 198H1869.48ZM1890.83 179.349H1904.28C1912.6 179.349 1919.65 178.054 1925.43 175.466C1931.26 172.831 1935.67 169.041 1938.67 164.095C1941.73 159.103 1943.25 153.07 1943.25 145.998C1943.25 138.88 1941.73 132.847 1938.67 127.901C1935.67 122.955 1931.26 119.188 1925.43 116.6C1919.65 113.965 1912.6 112.647 1904.28 112.647H1890.83V179.349ZM2009.12 186.768L2019.24 170.474C2022.43 173.062 2025.51 175.188 2028.46 176.853C2031.47 178.47 2034.43 179.672 2037.34 180.458C2040.25 181.198 2043.23 181.567 2046.28 181.567C2049.89 181.567 2053.01 181.059 2055.64 180.042C2058.28 179.025 2060.31 177.569 2061.75 175.674C2063.23 173.779 2063.96 171.583 2063.96 169.087C2063.96 166.175 2063.04 163.725 2061.19 161.737C2059.34 159.75 2056.92 158.016 2053.91 156.537C2050.95 155.012 2047.74 153.556 2044.27 152.169C2040.9 150.782 2037.5 149.28 2034.08 147.662C2030.71 145.998 2027.59 144.034 2024.72 141.769C2021.9 139.504 2019.61 136.753 2017.86 133.518C2016.15 130.236 2015.29 126.26 2015.29 121.592C2015.29 115.49 2016.82 110.221 2019.87 105.783C2022.96 101.346 2027.19 97.9251 2032.56 95.5215C2037.92 93.1178 2044.04 91.916 2050.93 91.916C2055.78 91.916 2060.82 92.5632 2066.04 93.8574C2071.31 95.1517 2076.56 97.1162 2081.78 99.751L2073.39 117.016C2070.11 115.028 2066.58 113.456 2062.79 112.301C2059 111.145 2055.44 110.567 2052.11 110.567C2049.1 110.567 2046.47 111.03 2044.2 111.954C2041.99 112.879 2040.25 114.173 2039 115.837C2037.76 117.455 2037.13 119.373 2037.13 121.592C2037.13 124.227 2038.03 126.515 2039.84 128.456C2041.64 130.351 2043.97 132.038 2046.84 133.518C2049.75 134.997 2052.87 136.476 2056.2 137.955C2059.62 139.434 2063.06 141.052 2066.53 142.809C2070.04 144.565 2073.23 146.645 2076.1 149.049C2079.01 151.406 2081.35 154.249 2083.1 157.577C2084.9 160.859 2085.81 164.811 2085.81 169.434C2085.81 175.535 2084.19 180.897 2080.95 185.52C2077.72 190.096 2073.21 193.678 2067.43 196.267C2061.65 198.809 2054.93 200.08 2047.25 200.08C2040.23 200.08 2033.5 198.948 2027.08 196.683C2020.65 194.418 2014.67 191.113 2009.12 186.768Z" fill="#262626"/>
<path d="M139.803 120.136C136.752 117.085 133.1 114.728 128.848 113.063C124.641 111.399 120.134 110.567 115.327 110.567C110.52 110.567 106.129 111.399 102.153 113.063C98.1781 114.728 94.7575 117.108 91.8916 120.205C89.0257 123.302 86.807 127 85.2354 131.299C83.6637 135.551 82.8779 140.312 82.8779 145.582C82.8779 150.852 83.6637 155.682 85.2354 160.073C86.8532 164.465 89.1182 168.255 92.0303 171.444C94.9886 174.588 98.4785 177.037 102.5 178.794C106.568 180.55 111.051 181.429 115.951 181.429C120.019 181.429 123.74 180.805 127.114 179.557C130.535 178.309 133.539 176.529 136.128 174.218C138.716 171.907 140.843 169.11 142.507 165.828C144.217 162.546 145.396 158.871 146.043 154.804H115.882V138.51H164.833L165.457 146.553C165.457 154.457 164.232 161.691 161.782 168.255C159.379 174.819 155.958 180.481 151.521 185.242C147.083 189.957 141.79 193.609 135.643 196.197C129.541 198.786 122.769 200.08 115.327 200.08C107.608 200.08 100.443 198.716 93.833 195.989C87.2692 193.262 81.5143 189.449 76.5684 184.549C71.6686 179.649 67.8551 173.917 65.1279 167.354C62.4007 160.743 61.0371 153.602 61.0371 145.929C61.0371 138.256 62.3776 131.16 65.0586 124.643C67.7858 118.079 71.5762 112.347 76.4297 107.447C81.3294 102.548 87.0381 98.734 93.5557 96.0068C100.073 93.2796 107.169 91.916 114.842 91.916C122.007 91.916 128.94 93.1641 135.643 95.6602C142.345 98.1562 148.331 101.715 153.601 106.338L139.803 120.136ZM229.87 198H207.475L248.938 93.9961H271.472L312.865 198H290.47L281.941 175.674H238.398L229.87 198ZM245.401 156.953H275.008L260.17 118.402L245.401 156.953ZM442.523 198H418.88L397.039 160.42H379.844V198H358.488V93.9961H398.01C406.376 93.9961 413.541 95.3135 419.504 97.9482C425.467 100.583 430.02 104.396 433.163 109.389C436.353 114.335 437.947 120.274 437.947 127.208C437.947 134.326 436.26 140.405 432.886 145.443C429.558 150.436 424.797 154.18 418.603 156.676L442.523 198ZM379.844 143.433H396.415C402.748 143.433 407.601 142.115 410.976 139.48C414.396 136.799 416.106 132.986 416.106 128.04C416.106 123.094 414.396 119.304 410.976 116.669C407.601 113.988 402.748 112.647 396.415 112.647H379.844V143.433ZM504.995 198H482.6L524.062 93.9961H546.597L587.99 198H565.595L557.066 175.674H513.523L504.995 198ZM520.526 156.953H550.133L535.295 118.402L520.526 156.953ZM708.773 120.136C705.723 117.085 702.071 114.728 697.818 113.063C693.612 111.399 689.105 110.567 684.298 110.567C679.491 110.567 675.099 111.399 671.124 113.063C667.149 114.728 663.728 117.108 660.862 120.205C657.996 123.302 655.778 127 654.206 131.299C652.634 135.551 651.849 140.312 651.849 145.582C651.849 150.852 652.634 155.682 654.206 160.073C655.824 164.465 658.089 168.255 661.001 171.444C663.959 174.588 667.449 177.037 671.471 178.794C675.538 180.55 680.022 181.429 684.922 181.429C688.99 181.429 692.711 180.805 696.085 179.557C699.506 178.309 702.51 176.529 705.099 174.218C707.687 171.907 709.813 169.11 711.478 165.828C713.188 162.546 714.367 158.871 715.014 154.804H684.853V138.51H733.804L734.428 146.553C734.428 154.457 733.203 161.691 730.753 168.255C728.349 174.819 724.929 180.481 720.491 185.242C716.054 189.957 710.761 193.609 704.613 196.197C698.512 198.786 691.74 200.08 684.298 200.08C676.578 200.08 669.414 198.716 662.804 195.989C656.24 193.262 650.485 189.449 645.539 184.549C640.639 179.649 636.826 173.917 634.099 167.354C631.371 160.743 630.008 153.602 630.008 145.929C630.008 138.256 631.348 131.16 634.029 124.643C636.757 118.079 640.547 112.347 645.4 107.447C650.3 102.548 656.009 98.734 662.526 96.0068C669.044 93.2796 676.139 91.916 683.812 91.916C690.977 91.916 697.911 93.1641 704.613 95.6602C711.316 98.1562 717.302 101.715 722.571 106.338L708.773 120.136ZM783.24 198V93.9961H850.357V112.647H804.596V136.291H847.515V155.012H804.596V179.349H851.051V198H783.24Z" fill="#262626"/>
<g filter="url(#filter0_i_664_3134)">
<path d="M1102.58 79.6827C1119.17 79.6827 1128.27 89.9392 1128.27 102.355C1128.27 112.854 1128.27 182.803 1128.27 204.145C1128.27 206.393 1125.53 207.487 1123.97 205.871L1006.09 83.9203C1004.55 82.3335 1005.66 79.6827 1007.86 79.6827C1027.24 79.6827 1088.66 79.6827 1102.58 79.6827Z" fill="url(#paint0_linear_664_3134)"/>
</g>
<path fill-rule="evenodd" clip-rule="evenodd" d="M903.603 68C901.44 68 900.298 70.5602 901.742 72.1698L907.889 79.0199C908.364 79.5483 909.04 79.8501 909.75 79.8501H989.989L1123.18 221.214C1123.65 221.716 1124.31 222 1125 222H1138.5C1139.88 222 1141 220.881 1141 219.5V99.6408C1141 83.016 1125.05 68 1108.03 68H903.603ZM1128.27 102.355C1128.27 89.9392 1119.17 79.6827 1102.58 79.6827H1007.86C1005.66 79.6827 1004.55 82.3335 1006.09 83.9203L1123.97 205.871C1125.53 207.488 1128.27 206.393 1128.27 204.145V102.355Z" fill="#151515"/>
<path d="M967.871 90.2833C966.35 88.6931 967.477 86.0552 969.677 86.0552H980.18C980.862 86.0552 981.515 86.334 981.987 86.8271L1107.24 217.772C1108.76 219.362 1107.64 222 1105.44 222H1094.93C1094.25 222 1093.6 221.721 1093.13 221.228L967.871 90.2833Z" fill="#151515"/>
<path d="M941.738 90.2833C940.217 88.693 941.344 86.0552 943.545 86.0552H954.047C954.73 86.0552 955.382 86.334 955.854 86.8271L1081.11 217.772C1082.63 219.362 1081.5 222 1079.3 222H1068.8C1068.12 222 1067.47 221.721 1067 221.228L941.738 90.2833Z" fill="#151515"/>
<path d="M916.9 90.2833C915.379 88.693 916.506 86.0552 918.707 86.0552H929.209C929.892 86.0552 930.544 86.334 931.016 86.8271L1056.27 217.772C1057.79 219.362 1056.67 222 1054.47 222H1043.96C1043.28 222 1042.63 221.721 1042.16 221.228L916.9 90.2833Z" fill="#151515"/>
</g>
<defs>
<filter id="filter0_i_664_3134" x="1005.37" y="79.6827" width="122.891" height="128.959" filterUnits="userSpaceOnUse" color-interpolation-filters="sRGB">
<feFlood flood-opacity="0" result="BackgroundImageFix"/>
<feBlend mode="normal" in="SourceGraphic" in2="BackgroundImageFix" result="shape"/>
<feColorMatrix in="SourceAlpha" type="matrix" values="0 0 0 0 0 0 0 0 0 0 0 0 0 0 0 0 0 0 127 0" result="hardAlpha"/>
<feOffset dy="2"/>
<feGaussianBlur stdDeviation="2"/>
<feComposite in2="hardAlpha" operator="arithmetic" k2="-1" k3="1"/>
<feColorMatrix type="matrix" values="0 0 0 0 0 0 0 0 0 0 0 0 0 0 0 0 0 0 0.25 0"/>
<feBlend mode="normal" in2="shape" result="effect1_innerShadow_664_3134"/>
</filter>
<linearGradient id="paint0_linear_664_3134" x1="1002.23" y1="79.7167" x2="1136.35" y2="215.519" gradientUnits="userSpaceOnUse">
<stop stop-color="#9A59CB"/>
<stop offset="0.708333" stop-color="#652C92"/>
</linearGradient>
<clipPath id="clip0_664_3134">
<rect width="2123" height="291" fill="white"/>
</clipPath>
</defs>
</svg>
