<svg width="1094" height="229" viewBox="0 0 1094 229" fill="none" xmlns="http://www.w3.org/2000/svg">
<path d="M396.001 227H343.364V146.434H359.907V212.552H396.001V227ZM432.31 227V146.434H484.302V160.882H448.853V179.197H482.1V193.699H448.853V212.552H484.839V227H432.31ZM582.593 166.683C580.229 164.319 577.401 162.493 574.106 161.204C570.848 159.915 567.357 159.271 563.633 159.271C559.909 159.271 556.507 159.915 553.428 161.204C550.348 162.493 547.699 164.337 545.479 166.736C543.258 169.135 541.54 172 540.322 175.33C539.105 178.624 538.496 182.312 538.496 186.395C538.496 190.477 539.105 194.218 540.322 197.62C541.576 201.022 543.33 203.958 545.586 206.429C547.878 208.864 550.581 210.761 553.696 212.122C556.847 213.483 560.321 214.163 564.116 214.163C567.267 214.163 570.15 213.68 572.764 212.713C575.413 211.746 577.741 210.368 579.746 208.577C581.751 206.787 583.398 204.62 584.688 202.078C586.012 199.536 586.925 196.689 587.427 193.538H564.062V180.916H601.982L602.466 187.146C602.466 193.27 601.517 198.873 599.619 203.958C597.757 209.043 595.107 213.429 591.67 217.117C588.232 220.77 584.132 223.598 579.37 225.604C574.644 227.609 569.398 228.611 563.633 228.611C557.653 228.611 552.103 227.555 546.982 225.442C541.898 223.33 537.44 220.376 533.608 216.58C529.813 212.785 526.859 208.344 524.746 203.26C522.633 198.139 521.577 192.607 521.577 186.663C521.577 180.719 522.616 175.223 524.692 170.174C526.805 165.089 529.741 160.649 533.501 156.854C537.297 153.058 541.719 150.104 546.768 147.991C551.816 145.879 557.313 144.822 563.257 144.822C568.807 144.822 574.178 145.789 579.37 147.723C584.562 149.656 589.199 152.413 593.281 155.994L582.593 166.683ZM640.278 227V146.434H692.271V160.882H656.821V179.197H690.068V193.699H656.821V212.552H692.808V227H640.278ZM806.084 227H787.07L749.419 172V227H732.876V146.434H751.89L789.541 201.541V146.434H806.084V227ZM846.743 227V146.434H873.115C882.855 146.434 891.287 148.081 898.413 151.375C905.539 154.669 911.053 159.324 914.956 165.34C918.859 171.355 920.811 178.481 920.811 186.717C920.811 194.917 918.859 202.042 914.956 208.094C911.053 214.109 905.539 218.764 898.413 222.059C891.287 225.353 882.855 227 873.115 227H846.743ZM863.286 212.552H873.706C880.151 212.552 885.612 211.549 890.088 209.544C894.6 207.503 898.019 204.567 900.347 200.735C902.71 196.868 903.892 192.195 903.892 186.717C903.892 181.202 902.71 176.53 900.347 172.698C898.019 168.867 894.6 165.949 890.088 163.943C885.612 161.902 880.151 160.882 873.706 160.882H863.286V212.552ZM954.917 218.299L962.759 205.677C965.229 207.682 967.611 209.329 969.902 210.618C972.23 211.871 974.521 212.802 976.777 213.411C979.033 213.984 981.343 214.271 983.706 214.271C986.499 214.271 988.916 213.877 990.957 213.089C992.998 212.301 994.574 211.173 995.684 209.705C996.829 208.237 997.402 206.536 997.402 204.603C997.402 202.347 996.686 200.449 995.254 198.909C993.822 197.369 991.942 196.027 989.614 194.881C987.323 193.699 984.834 192.571 982.148 191.497C979.535 190.423 976.903 189.259 974.253 188.006C971.639 186.717 969.222 185.195 967.002 183.44C964.818 181.686 963.045 179.555 961.685 177.049C960.36 174.507 959.697 171.427 959.697 167.811C959.697 163.084 960.879 159.002 963.242 155.564C965.641 152.127 968.918 149.477 973.071 147.615C977.225 145.753 981.969 144.822 987.305 144.822C991.064 144.822 994.967 145.324 999.014 146.326C1003.1 147.329 1007.16 148.851 1011.21 150.892L1004.71 164.266C1002.16 162.726 999.425 161.508 996.489 160.613C993.553 159.718 990.796 159.271 988.218 159.271C985.89 159.271 983.849 159.629 982.095 160.345C980.376 161.061 979.033 162.063 978.066 163.353C977.1 164.606 976.616 166.092 976.616 167.811C976.616 169.852 977.314 171.624 978.711 173.128C980.107 174.596 981.916 175.903 984.136 177.049C986.392 178.195 988.809 179.34 991.387 180.486C994.036 181.632 996.704 182.885 999.39 184.246C1002.11 185.607 1004.58 187.218 1006.8 189.08C1009.06 190.906 1010.87 193.108 1012.23 195.687C1013.62 198.229 1014.32 201.29 1014.32 204.871C1014.32 209.598 1013.07 213.751 1010.56 217.332C1008.06 220.877 1004.56 223.652 1000.09 225.657C995.612 227.627 990.402 228.611 984.458 228.611C979.015 228.611 973.805 227.734 968.828 225.979C963.851 224.225 959.214 221.665 954.917 218.299Z" fill="#150E0E"/>
<path d="M425.876 27.6826C423.513 25.3193 420.684 23.4932 417.39 22.2041C414.131 20.915 410.64 20.2705 406.916 20.2705C403.192 20.2705 399.79 20.915 396.711 22.2041C393.632 23.4932 390.982 25.3372 388.762 27.7363C386.542 30.1354 384.823 33 383.605 36.3301C382.388 39.6243 381.779 43.3125 381.779 47.3945C381.779 51.4766 382.388 55.2184 383.605 58.6201C384.859 62.0218 386.613 64.958 388.869 67.4287C391.161 69.8636 393.864 71.7614 396.979 73.1221C400.131 74.4827 403.604 75.1631 407.399 75.1631C410.55 75.1631 413.433 74.6797 416.047 73.7129C418.697 72.7461 421.024 71.3675 423.029 69.5771C425.035 67.7868 426.682 65.6204 427.971 63.0781C429.296 60.5358 430.209 57.6891 430.71 54.5381H407.346V41.916H445.266L445.749 48.1465C445.749 54.2695 444.8 59.8734 442.902 64.958C441.04 70.0426 438.391 74.429 434.953 78.1172C431.516 81.7695 427.416 84.5983 422.653 86.6035C417.927 88.6087 412.681 89.6113 406.916 89.6113C400.936 89.6113 395.386 88.555 390.266 86.4424C385.181 84.3298 380.723 81.3757 376.892 77.5801C373.096 73.7845 370.142 69.3444 368.029 64.2598C365.917 59.1393 364.86 53.6071 364.86 47.6631C364.86 41.7191 365.899 36.2227 367.976 31.1738C370.088 26.0892 373.024 21.6491 376.784 17.8535C380.58 14.0579 385.002 11.1038 390.051 8.99121C395.1 6.87858 400.596 5.82227 406.54 5.82227C412.09 5.82227 417.461 6.78906 422.653 8.72266C427.845 10.6562 432.482 13.4134 436.564 16.9941L425.876 27.6826ZM495.646 88H478.298L510.417 7.43359H527.873L559.938 88H542.59L535.983 70.7051H502.253L495.646 88ZM507.678 56.2031H530.612L519.118 26.3398L507.678 56.2031ZM662.419 88H644.104L627.185 58.8887H611.823V88H595.28V7.43359H627.937C634.418 7.43359 639.968 8.4541 644.587 10.4951C649.206 12.5361 652.733 15.4902 655.168 19.3574C657.639 23.1888 658.874 27.79 658.874 33.1611C658.874 38.6755 657.567 43.3841 654.953 47.2871C652.375 51.1543 648.687 54.0547 643.889 55.9883L662.419 88ZM611.823 45.7295H626.701C631.607 45.7295 635.367 44.709 637.98 42.668C640.63 40.5911 641.955 37.637 641.955 33.8057C641.955 29.9743 640.63 27.0381 637.98 24.9971C635.367 22.9202 631.607 21.8818 626.701 21.8818H611.823V45.7295ZM710.812 88H693.464L725.583 7.43359H743.039L775.104 88H757.756L751.149 70.7051H717.419L710.812 88ZM722.844 56.2031H745.778L734.284 26.3398L722.844 56.2031ZM868.669 27.6826C866.306 25.3193 863.477 23.4932 860.183 22.2041C856.924 20.915 853.433 20.2705 849.709 20.2705C845.985 20.2705 842.583 20.915 839.504 22.2041C836.424 23.4932 833.775 25.3372 831.555 27.7363C829.335 30.1354 827.616 33 826.398 36.3301C825.181 39.6243 824.572 43.3125 824.572 47.3945C824.572 51.4766 825.181 55.2184 826.398 58.6201C827.652 62.0218 829.406 64.958 831.662 67.4287C833.954 69.8636 836.657 71.7614 839.772 73.1221C842.924 74.4827 846.397 75.1631 850.192 75.1631C853.343 75.1631 856.226 74.6797 858.84 73.7129C861.49 72.7461 863.817 71.3675 865.822 69.5771C867.827 67.7868 869.475 65.6204 870.764 63.0781C872.089 60.5358 873.002 57.6891 873.503 54.5381H850.139V41.916H888.059L888.542 48.1465C888.542 54.2695 887.593 59.8734 885.695 64.958C883.833 70.0426 881.184 74.429 877.746 78.1172C874.309 81.7695 870.209 84.5983 865.446 86.6035C860.72 88.6087 855.474 89.6113 849.709 89.6113C843.729 89.6113 838.179 88.555 833.059 86.4424C827.974 84.3298 823.516 81.3757 819.685 77.5801C815.889 73.7845 812.935 69.3444 810.822 64.2598C808.71 59.1393 807.653 53.6071 807.653 47.6631C807.653 41.7191 808.692 36.2227 810.769 31.1738C812.881 26.0892 815.817 21.6491 819.577 17.8535C823.373 14.0579 827.795 11.1038 832.844 8.99121C837.893 6.87858 843.389 5.82227 849.333 5.82227C854.883 5.82227 860.254 6.78906 865.446 8.72266C870.638 10.6562 875.275 13.4134 879.357 16.9941L868.669 27.6826ZM926.354 88V7.43359H978.347V21.8818H942.897V40.1973H976.145V54.6992H942.897V73.5518H978.884V88H926.354Z" fill="#262626"/>
<g filter="url(#filter0_i_45_18)">
<path d="M224.789 33.8207C243.014 33.8207 253.009 45.0761 253.009 58.7011C253.009 70.3309 253.009 148.427 253.009 171.05C253.009 173.297 250.275 174.355 248.712 172.74L118.364 38.0593C116.829 36.473 117.934 33.8207 120.142 33.8207C140.758 33.8207 209.351 33.8207 224.789 33.8207Z" fill="url(#paint0_linear_45_18)"/>
</g>
<path fill-rule="evenodd" clip-rule="evenodd" d="M5.60729 21C3.44382 21 2.30172 23.5616 3.7477 25.1709L10.9399 33.1753C11.4141 33.703 12.0901 34.0044 12.7995 34.0044H101.074L247.489 189.215C247.961 189.716 248.619 190 249.307 190H264.5C265.881 190 267 188.881 267 187.5V55.7226C267 37.4785 249.473 21 230.777 21H5.60729ZM253.009 58.7011C253.009 45.0761 243.014 33.8207 224.789 33.8207H120.142C117.934 33.8207 116.829 36.473 118.364 38.0593L248.712 172.74C250.275 174.355 253.009 173.297 253.009 171.05V58.7011Z" fill="#151515"/>
<path d="M76.3783 45.043C74.8557 43.4532 75.9825 40.8138 78.1838 40.8138H90.403C91.0847 40.8138 91.7369 41.0922 92.2085 41.5846L230.303 185.771C231.826 187.361 230.699 190 228.497 190H216.278C215.597 190 214.944 189.722 214.473 189.229L76.3783 45.043Z" fill="#151515"/>
<path d="M47.6648 45.043C46.1421 43.4532 47.2689 40.8138 49.4703 40.8138H61.6893C62.3711 40.8138 63.0233 41.0922 63.4948 41.5846L201.589 185.771C203.112 187.361 201.985 190 199.784 190H187.565C186.883 190 186.231 189.722 185.759 189.229L47.6648 45.043Z" fill="#151515"/>
<path d="M20.3737 45.043C18.851 43.4532 19.9778 40.8138 22.1791 40.8138H34.3983C35.08 40.8138 35.7322 41.0922 36.2038 41.5846L174.298 185.771C175.821 187.361 174.694 190 172.493 190H160.273C159.592 190 158.94 189.722 158.468 189.229L20.3737 45.043Z" fill="#151515"/>
<defs>
<filter id="filter0_i_45_18" x="117.651" y="33.8207" width="135.358" height="141.698" filterUnits="userSpaceOnUse" color-interpolation-filters="sRGB">
<feFlood flood-opacity="0" result="BackgroundImageFix"/>
<feBlend mode="normal" in="SourceGraphic" in2="BackgroundImageFix" result="shape"/>
<feColorMatrix in="SourceAlpha" type="matrix" values="0 0 0 0 0 0 0 0 0 0 0 0 0 0 0 0 0 0 127 0" result="hardAlpha"/>
<feOffset dy="2"/>
<feGaussianBlur stdDeviation="2"/>
<feComposite in2="hardAlpha" operator="arithmetic" k2="-1" k3="1"/>
<feColorMatrix type="matrix" values="0 0 0 0 0 0 0 0 0 0 0 0 0 0 0 0 0 0 0.25 0"/>
<feBlend mode="normal" in2="shape" result="effect1_innerShadow_45_18"/>
</filter>
<linearGradient id="paint0_linear_45_18" x1="114.523" y1="33.858" x2="261.709" y2="183.07" gradientUnits="userSpaceOnUse">
<stop stop-color="#9A59CB"/>
<stop offset="0.708333" stop-color="#652C92"/>
</linearGradient>
</defs>
</svg>
